<svg width="120" height="46" xmlns="http://www.w3.org/2000/svg"><g fill="none" fill-rule="evenodd"><path d="M.19 35.5c.03-.34.057-.679.09-1.019.237-2.472 1.218-4.592 3.01-6.322 1.339-1.29 2.927-2.18 4.647-2.842 2.102-.809 4.292-1.239 6.523-1.491 2.208-.25 4.421-.253 6.635-.241h.18c.021-.03.036-.042.036-.057.006-1.417.07-2.836-.276-4.235-.452-1.82-1.612-2.893-3.429-3.233a13.352 13.352 0 0 0-2.367-.237c-3.39-.025-6.779-.01-10.168-.012-.572 0-1.12-.097-1.555-.497-.963-.878-.58-2.601.676-2.998.307-.096.644-.142.969-.145 3.284-.009 6.565-.018 9.85 0 1.603.01 3.194.16 4.733.644 2.74.86 4.364 2.725 4.969 5.51.246 1.128.334 2.27.334 3.42.006 6.853.006 13.705 0 20.559 0 .457-.03.92-.094 1.371-.138 1.002-.703 1.462-1.717 1.432-.881-.027-1.338-.397-1.537-1.26a4.2 4.2 0 0 1-.087-.584c-.027-.307-.036-.613-.057-.95-.229.207-.43.397-.64.574-1.426 1.21-3.095 1.901-4.906 2.253-.76.15-1.543.21-2.313.313-.054.006-.105.027-.16.042h-2.61c-.102-.015-.204-.042-.306-.048-1.492-.094-2.963-.316-4.385-.794-1.564-.527-2.954-1.33-4.03-2.61C1.01 40.622.472 38.943.289 37.13c-.04-.397-.066-.794-.1-1.191v-.44zm21.133-8.517c-.075-.006-.123-.012-.168-.012-2.49-.015-4.969.12-7.423.557-1.774.316-3.5.788-5.112 1.62-2.572 1.33-4.214 3.315-4.422 6.305-.093 1.329.136 2.583.909 3.699.842 1.22 2.042 1.943 3.42 2.406 1.449.487 2.947.601 4.465.547 1.408-.048 2.791-.225 4.133-.688 2.764-.957 4.204-2.969 4.204-5.886v-8.223c-.006-.099-.006-.195-.006-.325z" fill="#000" fill-rule="nonzero"/><path d="M32.003 45.498c-.123-.04-.247-.075-.367-.12-.98-.37-1.42-1.318-1.04-2.322a4.15 4.15 0 0 1 .547-.984c3.16-4.261 6.33-8.517 9.504-12.773.117-.16.123-.255.003-.418-2.993-4.009-5.98-8.024-8.969-12.036-.298-.4-.601-.8-.875-1.218-.313-.475-.511-.998-.406-1.582.21-1.137 1.519-1.738 2.556-1.185.43.229.752.575 1.038.963l8.337 11.368c.216.298.448.586.692.902.174-.237.34-.46.502-.685 2.815-3.865 5.63-7.733 8.45-11.591a4.05 4.05 0 0 1 .71-.743c.668-.542 1.471-.578 2.121-.133.659.451.92 1.203.647 2.021a3.848 3.848 0 0 1-.536 1.041c-3.164 4.28-6.34 8.55-9.522 12.818-.15.205-.144.319.003.52 3.167 4.259 6.328 8.52 9.486 12.785.175.235.334.49.463.752.515 1.053.142 2.021-.944 2.472-.126.055-.259.097-.388.145h-.59c-.532-.169-.899-.539-1.22-.978-2.656-3.627-5.318-7.248-7.976-10.872-.403-.547-.803-1.095-1.215-1.657-.064.084-.115.147-.163.214-2.869 3.957-5.741 7.912-8.601 11.876-.473.653-.99 1.218-1.805 1.417-.147.003-.295.003-.442.003zm87.705-2.021c-.08.297-.138.607-.252.89-.301.752-1.002 1.092-1.754.875-.442-.126-.722-.436-.902-.842-.202-.451-.265-.93-.265-1.417-.003-13.533-.003-27.067 0-40.601 0-.52.07-1.032.313-1.504.268-.517.686-.8 1.281-.8.596.003 1.026.283 1.27.812.14.307.21.644.312.969-.003 13.876-.003 27.747-.003 41.618z" fill="#000"/><path d="M75.275 28.253c-.02.697-.066 1.368-.054 2.036.033 1.582.244 3.137.749 4.643 1.116 3.327 3.42 5.33 6.806 6.13 1.194.282 2.409.397 3.636.397h9.552c.448 0 .884.06 1.281.285.656.373.963 1.086.824 1.901-.13.761-.625 1.26-1.42 1.402a3.487 3.487 0 0 1-.586.054c-3.38.003-6.764.02-10.144-.003-2.466-.018-4.866-.418-7.119-1.477-2.842-1.335-4.8-3.51-6.024-6.376-.71-1.663-1.113-3.407-1.332-5.197a26.553 26.553 0 0 1-.142-5.353c.295-3.651 1.318-7.053 3.621-9.973 2.07-2.62 4.788-4.16 8.07-4.713 2.135-.36 4.264-.352 6.363.229 3.516.971 5.982 3.188 7.55 6.445.874 1.816 1.329 3.747 1.479 5.753.051.662.093 1.33.06 1.988-.063 1.191-.743 1.802-1.94 1.832-.075.003-.147 0-.222 0H75.675c-.102-.003-.207-.003-.4-.003zm19.69-3.134c.006-.04.015-.063.012-.084-.234-1.793-.67-3.525-1.518-5.134-.98-1.862-2.376-3.29-4.355-4.084-1.63-.653-3.324-.785-5.053-.563-2.403.31-4.385 1.384-5.91 3.275-1.209 1.501-1.906 3.236-2.31 5.101-.105.484-.177.978-.27 1.489h19.404z" fill="#000" fill-rule="nonzero"/><path d="M108.62 22.692c0 6.713 0 13.428-.003 20.141 0 .56-.049 1.116-.298 1.633-.328.68-.972.978-1.696.788-.428-.111-.71-.4-.897-.785-.222-.46-.294-.953-.294-1.458V4.72c0-.802-.03-1.608.012-2.411.024-.451.117-.915.27-1.336.208-.571.659-.884 1.29-.887.63-.006 1.056.304 1.32.857.247.518.293 1.074.293 1.633.003 6.701.003 13.408.003 20.115zm-46.948 5.943c0-4.72-.006-9.438.01-14.154 0-.463.056-.938.18-1.38.243-.854.905-1.245 1.72-1.089.454.087.758.37.962.77.217.424.304.884.304 1.356.003 9.676.003 19.348-.003 29.023 0 .59-.114 1.16-.493 1.642-.55.692-1.645.683-2.187-.018-.3-.391-.412-.851-.463-1.33a6.56 6.56 0 0 1-.027-.688c-.003-4.713-.003-9.423-.003-14.132z" fill="#000"/><path d="M65.96 5.11c-.02 1.335-.916 2.511-2.116 2.752-1.36.273-2.641-.46-3.098-1.775-.472-1.356.102-2.869 1.332-3.5 1.519-.785 3.402.12 3.787 1.822.05.226.063.466.096.7z" fill="#CC3D3D"/></g></svg>